<svg width="52" height="53" viewBox="0 0 52 53" fill="none" xmlns="http://www.w3.org/2000/svg">
<path d="M31.9498 9.82648L32.6832 8.74152L33.0592 8.2171C33.5006 7.61667 34.1078 6.82942 34.5953 6.22784L34.5963 6.22687C34.9361 5.80614 35.2057 5.45542 35.4029 5.16827C35.5916 4.89358 35.7454 4.6331 35.8121 4.40167C35.8462 4.28336 35.8733 4.12072 35.8258 3.94855C35.7716 3.75259 35.6398 3.61157 35.483 3.53058C35.3453 3.45944 35.2004 3.43999 35.0875 3.43488C34.9689 3.42953 34.842 3.43851 34.7164 3.45441V3.45538C34.439 3.48558 34.1613 3.57217 33.943 3.78156C33.7202 3.99534 33.6245 4.27336 33.5885 4.54718C33.5722 4.6709 33.5381 4.71643 33.5133 4.74054C33.4808 4.77202 33.4037 4.82319 33.2174 4.86261L33.2164 4.86359C33.0033 4.90907 32.7878 4.98084 32.6227 5.08331C32.5464 5.13066 32.4282 5.2162 32.3502 5.3548C32.3281 5.39423 32.3078 5.44123 32.2936 5.49445C32.0412 5.55476 31.8118 5.69444 31.6627 5.95343C31.5353 6.17466 31.4956 6.4373 31.4879 6.69855C31.4814 6.69652 31.4754 6.69348 31.4693 6.69171C31.2463 6.62676 30.9631 6.62111 30.6949 6.63898C30.1392 6.67605 29.4174 6.83096 28.815 7.09113V7.0921C28.6902 7.14493 28.6287 7.15311 28.607 7.1546L28.565 7.11261C28.4803 7.0197 28.3607 6.91998 28.2291 6.81964C28.391 6.57894 28.413 6.28889 28.3883 6.05304C28.3278 5.47602 27.964 4.75642 27.4098 4.08136L27.4068 4.07843C27.052 3.65375 26.8682 3.39406 26.7867 3.23468C27.0581 2.96103 27.199 2.60363 27.1441 2.21515C27.0854 1.79978 26.8171 1.44612 26.4635 1.18292L26.4625 1.1839C26.3009 1.06211 26.142 0.945763 25.9889 0.867493C25.8288 0.785673 25.6231 0.716993 25.3873 0.756165C25.1586 0.794272 24.9861 0.920869 24.858 1.04034C24.7306 1.15919 24.6006 1.31614 24.4654 1.48566L24.3277 1.66925C24.1984 1.85381 24.0889 2.05427 24.0563 2.27472C24.0057 2.61681 24.1502 2.88641 24.2975 3.09503L24.3043 3.1048L24.3121 3.11359C24.4456 3.28475 24.4877 3.36598 24.5006 3.39581C24.4914 3.4154 24.4675 3.45951 24.4059 3.53546C24.3179 3.64379 24.1858 3.78115 23.9889 3.97394V3.97491C23.7146 4.24356 23.4643 4.51067 23.3619 4.80499C23.2455 5.14028 23.3372 5.42233 23.4684 5.64777L23.526 5.74054C23.6113 5.87517 23.6985 5.99549 23.7867 6.09406C23.7822 6.09496 23.7779 6.09527 23.774 6.09601C23.7623 6.09823 23.7558 6.09876 23.7545 6.09894C23.749 6.09969 23.7642 6.09817 23.7897 6.09796H23.7906C23.6491 6.0986 23.5098 6.15571 23.4088 6.26495C23.3218 6.35929 23.2903 6.46185 23.2779 6.51886C23.2541 6.62913 23.2679 6.72946 23.276 6.7796C23.2769 6.78518 23.2789 6.79059 23.2799 6.7962C23.1908 6.81973 23.0958 6.84878 22.9996 6.88312L22.6979 7.00616C22.4894 7.10198 22.3746 7.12728 22.3111 7.13019C22.2705 7.13199 22.2434 7.12727 22.1979 7.09601C22.0006 6.95811 21.7544 6.85111 21.4586 6.89386C21.2975 6.91716 21.1544 6.98371 21.025 7.06378C20.9862 6.99572 20.9453 6.93265 20.9029 6.87921C20.8325 6.79039 20.7487 6.70521 20.6549 6.62823C20.7987 6.6114 20.9629 6.59485 21.149 6.57941H21.151C21.6259 6.53814 22.0105 6.50562 22.2897 6.46222C22.4296 6.44046 22.5667 6.41214 22.6871 6.37042C22.8001 6.33125 22.9573 6.26044 23.0758 6.11554C23.2158 5.94429 23.2446 5.74307 23.2145 5.56964C23.1886 5.42099 23.1199 5.29096 23.0611 5.19366C22.9433 4.99862 22.7478 4.75633 22.5338 4.48956L22.5318 4.48761C22.2282 4.11286 22.1094 3.92014 22.0719 3.81281C22.07 3.80727 22.0691 3.80212 22.068 3.79816L22.0777 3.78351L22.0816 3.77667C22.6796 2.96967 22.0556 1.83544 21.0807 1.83527C20.5537 1.83527 20.1323 2.13232 19.9557 2.57062C19.783 2.99928 19.8658 3.5016 20.1842 3.90265C20.3273 4.08366 20.3526 4.26065 20.3121 4.43292C20.2678 4.62141 20.1363 4.82738 19.9293 4.99933C19.4992 5.35651 18.9411 5.42868 18.5524 5.12628C18.3896 4.99522 18.1978 4.90702 18.0191 4.8587C17.9234 4.83284 17.8065 4.8142 17.6832 4.81476C17.6819 4.80604 17.6795 4.79704 17.6783 4.78741C17.6388 4.39523 17.4799 4.04112 17.1881 3.78546C16.896 3.52958 16.5171 3.41279 16.1139 3.40558H16.1051C16.0234 3.40558 15.9263 3.41033 15.8307 3.43097C15.7388 3.45085 15.5988 3.49563 15.4801 3.61359C15.1913 3.90086 15.3171 4.27042 15.3746 4.40753C15.449 4.58487 15.581 4.7904 15.7438 5.01886C15.9122 5.25534 16.1378 5.54863 16.4215 5.90851C16.9879 6.62975 17.8234 7.7727 18.2633 8.44171L18.2643 8.44269L19.0826 9.67706L19.2408 9.91534L19.526 9.89972L21.4068 9.79913L22.4674 9.75323C25.0035 9.66524 27.8883 9.71193 29.6627 9.87628L31.4899 10.0443L31.7838 10.0716L31.9498 9.82648ZM24.859 5.24933L24.86 5.24835C24.8527 5.22292 24.8502 5.20042 24.8463 5.18195C24.8539 5.17965 24.8616 5.17817 24.8688 5.17609C24.8707 5.21107 24.8721 5.25025 24.8727 5.29425C24.8683 5.27926 24.8636 5.26434 24.859 5.24933ZM25.6315 7.50812C25.6021 7.51068 25.5599 7.5045 25.5074 7.47003C25.3989 7.39874 25.2604 7.2072 25.2604 6.888C25.2603 6.76559 25.2532 6.63763 25.2262 6.51788C25.1994 6.39958 25.1439 6.24489 25.0133 6.11847C24.9786 6.08498 24.9415 6.05798 24.9049 6.03448C24.9297 5.96919 24.9405 5.90605 24.9459 5.85089C24.9509 5.86639 24.955 5.88265 24.9606 5.89777C25.0172 6.05038 25.1321 6.25322 25.359 6.35675C25.5057 6.42359 25.6503 6.42679 25.7789 6.39581C25.773 6.4025 25.766 6.40828 25.7604 6.41534C25.6864 6.5074 25.6466 6.61064 25.6315 6.71124L25.6236 6.80988L25.6295 6.88995C25.6539 7.06994 25.7559 7.19635 25.8287 7.26495C25.8482 7.2833 25.8687 7.29996 25.8893 7.31573C25.8487 7.35306 25.8099 7.39141 25.7731 7.42999C25.7076 7.49408 25.658 7.50579 25.6315 7.50812ZM23.8932 7.08624C23.8639 7.09256 23.8341 7.09529 23.8043 7.09601C23.8354 7.09536 23.8661 7.08998 23.8932 7.08624Z" fill="white" stroke="white"/>
<path d="M30.7897 6.55664C30.9114 6.55782 31.0378 6.55238 31.1539 6.53027C31.2642 6.50924 31.4244 6.46225 31.5573 6.33398C31.7095 6.18691 31.7581 6.00154 31.7555 5.84277C31.7531 5.70315 31.712 5.57377 31.6744 5.47656C31.5994 5.2824 31.4653 5.03832 31.319 4.77344C31.1125 4.38794 31.0517 4.21811 31.0406 4.125C31.0373 4.09724 31.0271 4.07192 31.1158 3.9502L31.1969 3.83496C31.5737 3.25114 31.529 2.57301 31.0709 2.16309C30.5774 1.72181 29.8384 1.79915 29.2994 2.3418V2.34277C29.1491 2.49064 28.9452 2.71834 28.9313 3.04199C28.9213 3.2764 29.0156 3.47909 29.1217 3.64258L29.234 3.7998L29.2926 3.88281L29.2916 3.88574C29.2782 3.90966 29.2564 3.94234 29.2233 3.98633C29.1554 4.07646 29.055 4.19184 28.9078 4.34863L28.9059 4.35059C28.6699 4.60579 28.4678 4.83529 28.3375 5.0332C28.2721 5.13265 28.2059 5.25236 28.1696 5.38477C28.1311 5.52535 28.1201 5.70531 28.2047 5.88574C28.2862 6.05938 28.424 6.16367 28.5397 6.22656C28.6541 6.28874 28.7812 6.32862 28.901 6.35742C29.1397 6.41479 29.4554 6.45311 29.8239 6.48926H29.8268C30.2206 6.52495 30.5469 6.55427 30.7897 6.55664Z" fill="white" stroke="white"/>
<path d="M12.3008 48.3112C20.2315 52.5588 30.893 53.2604 40.0986 48.1637L40.5361 47.9166C45.9 44.8185 48.9241 41.2033 50.9951 35.36H50.9941C51.156 34.9049 51.271 34.1841 51.3506 33.3815C51.4317 32.5642 51.4805 31.6156 51.4951 30.6783C51.5098 29.7415 51.491 28.8079 51.4346 28.0201C51.3801 27.2597 51.2858 26.5712 51.127 26.1598L51.1279 26.1588C50.9651 25.7235 50.6414 24.8345 50.4268 24.1725L50.4258 24.1715C49.7443 22.0827 47.8808 19.2707 45.9404 17.3033L45.5518 16.9215C45.0089 16.4053 44.0596 15.6198 43.1807 14.9332C42.7393 14.5885 42.3107 14.2641 41.9531 14.0074C41.6095 13.7608 41.2949 13.5501 41.1016 13.4576L41.0986 13.4557C40.8132 13.3215 39.7404 12.8076 38.7021 12.3131L38.7012 12.3141C34.072 10.0958 28.3103 9.15348 22.6689 9.68811C17.6825 10.1567 12.1534 12.3445 8.30078 15.3649C7.397 16.0678 6.26104 17.1784 5.33594 18.1989C4.87217 18.7104 4.45366 19.2077 4.13867 19.6285C3.98149 19.8386 3.84435 20.0358 3.74023 20.2106C3.64509 20.3703 3.55042 20.555 3.5127 20.7311L3.47754 20.8385C3.46087 20.8786 3.43957 20.922 3.41406 20.9645C3.38976 21.0049 3.36468 21.0384 3.34277 21.0641C3.33196 21.0767 3.3224 21.0868 3.31543 21.0934C3.31064 21.0979 3.30772 21.1004 3.30664 21.1012L3.29883 21.1061C3.16263 21.2045 3.04497 21.3477 2.94824 21.4821C2.84542 21.6249 2.73922 21.7967 2.63379 21.986C2.42248 22.3654 2.19684 22.8428 1.97949 23.3571C1.54599 24.3828 1.12816 25.5994 0.921875 26.5533V26.5553C-1.0791 35.9597 4.24384 43.9958 12.3008 48.3112ZM25.3086 49.6412C17.3457 49.4297 9.57482 45.995 5.44824 39.5045L5.06055 38.8668C1.36304 32.4896 2.44732 24.4998 7.8252 18.8629H7.82422C8.1623 18.5094 8.45713 18.1612 8.66113 17.8805C8.7612 17.7428 8.8508 17.6063 8.91113 17.485C8.92009 17.467 8.92809 17.4461 8.9375 17.4244C8.9623 17.4167 8.98662 17.4084 9.00977 17.4C9.13559 17.3544 9.27302 17.2892 9.40918 17.2164C9.68402 17.0696 10.0001 16.8683 10.292 16.6617C10.5827 16.456 10.8668 16.2325 11.0723 16.0377C11.1714 15.9437 11.2737 15.8373 11.3467 15.7291C11.3687 15.6965 11.3957 15.6509 11.4199 15.5963C11.4335 15.5914 11.4473 15.5868 11.4609 15.5817C11.5924 15.5319 11.7608 15.4605 11.9492 15.3766C12.3281 15.2078 12.8133 14.9765 13.3008 14.735C13.7885 14.4934 14.2835 14.2387 14.6816 14.0221C14.8804 13.914 15.0587 13.8131 15.2012 13.7272C15.3203 13.6554 15.4469 13.5733 15.5352 13.4977L15.5371 13.4987C15.5384 13.4979 15.5403 13.4977 15.542 13.4967C15.554 13.4899 15.571 13.481 15.5918 13.4723C15.6365 13.4535 15.6778 13.4418 15.7021 13.4381C15.7743 13.4273 15.9123 13.3922 16.0557 13.3541C16.2156 13.3116 16.427 13.2531 16.6738 13.1842L18.4775 12.6735L18.4805 12.6725C22.7681 11.427 27.6431 11.2319 31.5879 12.1198C35.5326 13.0169 39.8777 14.9968 41.9902 16.8209L41.9941 16.8239C42.2358 17.0289 42.4961 17.2069 42.7295 17.3258C42.8323 17.3782 42.9433 17.4244 43.0537 17.4557C43.1116 17.5852 43.1979 17.7187 43.2871 17.8414C43.4759 18.1011 43.7435 18.3998 44.0176 18.6735C44.2917 18.9471 44.5905 19.2135 44.8496 19.402C44.9556 19.4791 45.0698 19.5537 45.1816 19.61C45.2094 19.7178 45.2522 19.8254 45.2998 19.9244C45.4147 20.1634 45.5927 20.4329 45.8037 20.6871L45.8076 20.692C46.1625 21.1092 46.7307 21.9542 47.0596 22.5494L47.0654 22.5602C47.2523 22.8794 47.452 23.1678 47.6328 23.3717C47.6959 23.4429 47.768 23.5173 47.8467 23.5807C47.8485 23.6141 47.8511 23.6472 47.8545 23.6793C47.8718 23.844 47.91 24.0429 47.9619 24.2565C48.0666 24.6871 48.237 25.2293 48.4473 25.7828C50.0319 29.9865 49.1974 35.8264 46.3887 39.9576V39.9586C41.8259 46.6401 33.5275 49.8594 25.3086 49.6412Z" stroke="white"/>
<path d="M18.1312 48.5678C25.2773 50.7327 33.6823 50.0509 40.3861 45.601H40.3851C48.1988 40.4206 50.6988 32.8975 48.6625 26.1557C46.6332 19.4372 40.1409 13.6312 30.2533 11.7367L30.2543 11.7357C29.3665 11.5622 27.6362 11.4964 25.9105 11.516C24.1782 11.5357 22.3706 11.6423 21.3177 11.8353V11.8363C8.89579 14.0564 0.780812 23.9506 3.29723 34.2904C5.01994 41.3652 10.9886 46.4038 18.1312 48.5678ZM43.7005 40.5365C37.5244 47.5503 27.8081 49.4154 19.5912 47.3432C11.3701 45.2698 4.81242 39.3102 4.74644 30.8158V30.8148C4.66762 21.9478 11.7582 14.9735 22.9271 13.2816H22.9261C23.2243 13.2375 23.8294 13.216 24.6263 13.2191C25.4112 13.2223 26.3495 13.2492 27.2933 13.2924C29.2025 13.3798 31.0673 13.5335 31.7513 13.6898H31.7523C33.932 14.1819 37.3238 15.6167 39.0287 16.7475C39.815 17.2781 40.3902 17.6328 40.6986 17.7631C40.7395 17.7804 40.8111 17.8088 40.8959 17.8266C40.9348 17.8886 40.9777 17.9496 41.0218 18.0062C41.1763 18.2042 41.396 18.4336 41.6429 18.6547C42.0861 19.0515 42.972 19.9666 43.5931 20.6664L43.5961 20.6703C43.9276 21.0359 44.2601 21.357 44.5336 21.5805C44.6393 21.6669 44.7476 21.7456 44.85 21.809C44.8614 21.9218 44.8861 22.0377 44.9193 22.1478C44.9948 22.3979 45.1239 22.679 45.2875 22.9418C48.6446 28.3804 48.0011 35.6526 43.7005 40.5365Z" fill="white" stroke="white"/>
<path d="M22.9888 19.0109C20.3307 19.7286 18.1361 21.1865 18.6541 21.8817C18.7632 22.0275 18.7223 22.0836 18.5587 21.9939C18.1634 21.792 17.9589 22.6106 17.9453 24.4498C17.9453 26.1767 18.3679 27.5448 18.8313 27.3094C18.9949 27.2309 19.0358 27.2645 18.9404 27.3991C18.586 27.8701 20.5079 29.4849 22.8116 30.6512C23.6158 31.0549 25.0471 31.8062 26.0012 32.3333C26.9554 32.8603 27.8005 33.2865 27.8823 33.2865C28.0731 33.2865 29.9951 35.0134 30.3222 35.4844C32.2578 38.2431 29.7634 41.5737 25.7286 41.5849C22.021 41.5849 19.5947 39.4542 19.0903 35.7311C18.9267 34.4976 18.8177 34.2957 18.3542 34.2957C17.8363 34.2957 17.809 34.4527 17.7954 38.288C17.7817 41.697 17.8363 42.269 18.1907 42.2129C18.4088 42.1793 18.695 41.8204 18.8177 41.4167C19.1176 40.4859 19.322 40.4971 21.871 41.5849C26.0149 43.3567 31.2628 42.3587 33.3756 39.3982C34.7251 37.503 34.3979 32.8379 32.9121 32.8379C32.7758 32.8379 32.6668 32.6921 32.6668 32.5239C32.6668 32.1202 30.4994 30.5614 30.1723 30.7297C30.036 30.7969 29.9542 30.7184 30.0087 30.5502C30.0496 30.3932 29.8588 30.2699 29.5998 30.2923C29.3408 30.3035 29.1909 30.2362 29.259 30.1465C29.3953 29.9671 28.6047 29.597 28.2367 29.6643C28.1277 29.6867 28.0322 29.6082 28.0322 29.4961C28.0322 29.2494 26.3011 28.3298 25.715 28.2625C25.4969 28.2401 25.2243 28.128 25.1152 28.0271C24.9925 27.9149 25.0471 27.9037 25.2379 27.9934C25.4287 28.0831 25.5787 28.1056 25.5787 28.0495C25.5787 27.9934 25.0607 27.6906 24.42 27.3878C23.7794 27.0851 23.0297 26.6141 22.7434 26.3674C22.4708 26.1094 22.1028 25.9637 21.9528 26.0422C21.8029 26.1207 21.762 26.0646 21.871 25.93C21.9664 25.7842 21.8438 25.403 21.5711 25.0665C19.8945 22.9583 21.8574 19.908 25.0471 19.6501C28.4957 19.381 31.072 21.478 31.6308 24.988C31.6853 25.3693 31.9034 25.5712 32.326 25.616C33.0076 25.6945 33.0076 25.6721 33.0757 21.1192C33.1166 19.0333 32.4896 18.3269 31.8489 19.7174C31.5081 20.4463 31.181 20.4239 29.1363 19.5604C27.1871 18.7306 24.8017 18.5175 22.9888 19.0109ZM20.3171 25.1562C19.9491 25.56 19.7582 25.5039 19.4038 24.8871C19.0358 24.2143 19.4583 24.0012 20.1399 24.5283C20.4398 24.7637 20.4943 24.9656 20.3171 25.1562ZM21.244 26.6029C22.1164 26.8496 22.2527 27.2533 21.6257 27.6794C21.3394 27.8701 21.2167 27.8813 21.2167 27.7018C21.2167 27.5673 21.3394 27.4551 21.4757 27.4551C21.6257 27.4551 21.6802 27.2981 21.5848 27.1187C21.503 26.9281 21.3258 26.7823 21.1895 26.7823C21.0668 26.7823 21.0259 26.9169 21.1077 27.0851C21.1758 27.2533 21.0259 27.5224 20.7533 27.6906C20.4807 27.8588 20.358 27.9149 20.467 27.8028C20.5761 27.6906 20.5079 27.4439 20.3035 27.2533C19.7446 26.7262 19.5129 25.7169 19.9218 25.6048C20.1126 25.5487 20.3035 25.7057 20.358 25.9412C20.3989 26.1767 20.7942 26.4683 21.244 26.6029ZM23.8748 28.6775C23.8339 28.6887 23.5749 28.8569 23.275 29.0363C22.9888 29.2157 22.8252 29.2494 22.9342 29.1036C23.0433 28.9578 22.9342 28.7896 22.7025 28.7111C22.4572 28.6438 22.3481 28.4868 22.4299 28.3635C22.5389 28.2289 22.8525 28.2401 23.275 28.3971C23.6431 28.5317 23.9157 28.6663 23.8748 28.6775Z" fill="white"/>
</svg>
