<svg width="52" height="52" viewBox="0 0 52 52" fill="none" xmlns="http://www.w3.org/2000/svg">
<path d="M24.8562 1.79726C24.4882 2.26825 24.4609 2.45889 24.7063 2.80653C25.1697 3.40087 25.1289 3.55787 24.3383 4.33165C23.7658 4.89235 23.6976 5.0942 23.943 5.46427C24.3383 6.09226 24.5836 6.0474 24.3791 5.38577C24.2701 5.00449 24.3519 4.80264 24.6654 4.71292C25.2379 4.5335 25.3742 4.65685 25.3742 5.35213C25.3742 5.9689 25.7014 6.11469 25.9331 5.61005C26.0149 5.44184 25.9467 5.19513 25.7695 5.04935C25.6059 4.91478 25.5242 4.79142 25.5923 4.78021C26.4102 4.65685 26.9963 4.6905 27.1326 4.86992C27.2417 5.01571 27.1462 5.02692 26.9145 4.90356C26.5874 4.74657 26.5874 4.769 26.9009 5.0942C27.2417 5.43063 27.2144 5.47548 26.6692 5.47548C26.2466 5.47548 26.1103 5.57641 26.233 5.81191C26.3284 5.99133 26.4783 6.31654 26.5737 6.5184C26.6964 6.77632 26.6555 6.8436 26.4374 6.73146C26.2739 6.64175 26.1239 6.67539 26.1239 6.80996C26.1239 6.93332 26.3965 7.05667 26.7373 7.06789C27.1326 7.0791 27.2144 7.12396 26.9554 7.21367C26.7373 7.28095 26.3556 7.53888 26.1239 7.78559C25.565 8.33508 24.7608 7.80802 24.7608 6.88846C24.7608 6.46233 24.6518 6.3614 24.3246 6.46233C24.0929 6.54082 23.8475 6.59689 23.793 6.59689C23.7385 6.59689 23.7658 6.75389 23.8475 6.94453C23.943 7.13517 23.9021 7.25853 23.7658 7.2361C23.6431 7.20246 23.2478 7.30338 22.907 7.46038C22.4435 7.67345 22.1709 7.68466 21.9119 7.50524C21.6393 7.3146 21.4349 7.34824 21.1077 7.61738C20.7124 7.94259 20.6715 7.94259 20.6715 7.56131C20.6715 7.33703 20.4262 7.02303 20.1263 6.87725C19.2403 6.41747 19.4856 6.21561 21.1077 6.08105C23.0433 5.91283 23.0433 5.92405 22.1437 4.80264C21.5439 4.06251 21.4485 3.78215 21.6802 3.47937C22.021 3.0196 21.6666 2.33554 21.0804 2.33554C20.4262 2.33554 20.1399 3.04202 20.5761 3.59151C21.5439 4.81385 19.5129 6.50718 18.2452 5.52034C18.0407 5.35213 17.7272 5.27363 17.5636 5.3297C17.3728 5.38577 17.2229 5.18392 17.182 4.84749C17.1275 4.26436 16.7322 3.91672 16.1051 3.90551C15.5735 3.90551 15.6826 4.16343 16.8139 5.59884C17.3864 6.32776 18.2316 7.48281 18.6814 8.16687L19.4993 9.40042L21.3803 9.29949C24.1474 9.15371 27.6506 9.18735 29.7089 9.37799L31.5354 9.5462L32.2715 8.45844C32.6804 7.86409 33.5528 6.72025 34.2071 5.91283C35.5566 4.24193 35.6656 3.83822 34.7796 3.95037C34.3434 3.99522 34.1389 4.19708 34.0844 4.612C34.0299 5.02692 33.7982 5.2512 33.3211 5.35213C32.953 5.43063 32.7077 5.57641 32.7895 5.68855C32.8849 5.80069 32.7349 5.92405 32.4623 5.9689C32.1216 6.02498 31.9852 6.26047 31.9852 6.79875C31.9852 7.22488 31.8353 7.60616 31.6445 7.66223C31.4264 7.7183 31.3582 7.62859 31.4809 7.38188C31.6717 6.97817 30.1042 7.0791 29.0137 7.55009C28.6184 7.7183 28.4003 7.68466 28.1958 7.44917C28.0323 7.26974 27.6506 7.0006 27.3507 6.8436C27.0099 6.66418 26.969 6.60811 27.2553 6.67539C28.2095 6.91089 28.0731 5.67734 27.0236 4.39893C26.2739 3.5018 26.1103 3.15416 26.3556 2.95231C26.8191 2.57103 26.7373 2.01033 26.1648 1.58419C25.5105 1.09077 25.4015 1.1132 24.8562 1.79726ZM19.99 7.46038C20.0172 7.74073 19.9354 8.00987 19.8264 8.06594C19.5265 8.22294 18.9676 7.3146 19.1857 7.03424C19.4584 6.65296 19.9491 6.91089 19.99 7.46038Z" fill="black" stroke="black"/>
<path d="M29.6543 2.69438C29.368 2.97473 29.3544 3.13173 29.627 3.49058C29.9269 3.87186 29.8724 4.05128 29.2726 4.69049C28.3185 5.72219 28.3866 5.84554 29.8724 5.99132C31.4808 6.13711 31.4945 6.12589 30.8811 5.0157C30.4722 4.25314 30.4449 4.01764 30.7175 3.64758C31.3991 2.75045 30.4449 1.89818 29.6543 2.69438Z" fill="black" stroke="black"/>
<path d="M22.7161 10.1854C17.8226 10.6452 12.3838 12.7983 8.60806 15.7588C6.86329 17.1157 4.15072 20.1099 4.00078 20.8388C3.94625 21.0855 3.76905 21.3883 3.59185 21.5117C3.03298 21.9154 1.80619 24.831 1.41089 26.6589C-2.47394 44.9155 22.0073 58.0248 40.2865 47.4835C45.5481 44.4445 48.4924 40.9233 50.5234 35.1929C51.0822 33.6229 51.1777 27.657 50.6597 26.3337C50.4961 25.8964 50.169 24.9993 49.9509 24.3264C49.2557 22.1957 47.2383 19.2128 45.2073 17.2839C44.1577 16.2859 41.4724 14.1889 40.8863 13.9085C40.6 13.7739 39.5232 13.2581 38.4872 12.7647C33.9481 10.5891 28.2776 9.65836 22.7161 10.1854ZM31.699 11.632C35.6928 12.5404 40.1229 14.5477 42.3175 16.4429C42.7537 16.813 43.2308 17.0597 43.3807 16.9812C43.5307 16.9027 43.5852 16.9475 43.4898 17.0597C43.2717 17.3512 45.3436 19.4146 45.6298 19.2016C45.7389 19.1118 45.7662 19.1567 45.6707 19.2913C45.5753 19.4258 45.807 19.908 46.1887 20.3678C46.5704 20.8164 47.1565 21.6911 47.4973 22.3079C47.8517 22.9134 48.2197 23.3396 48.3424 23.2499C48.4651 23.1601 48.4787 23.205 48.3697 23.362C48.2606 23.519 48.506 24.5283 48.9149 25.6048C50.5643 29.9783 49.6919 35.9891 46.8021 40.2392C37.4376 53.9541 12.8746 53.3037 4.62781 39.1178C0.811126 32.5351 1.9425 24.304 7.46305 18.5175C8.11734 17.8334 8.58079 17.1942 8.49901 17.0933C8.43085 16.9924 8.48538 16.9251 8.62169 16.97C9.00335 17.0485 11.1434 15.5345 10.9662 15.3103C10.8844 15.1981 10.9253 15.1308 11.0616 15.1757C11.2661 15.2206 14.8511 13.4487 15.2191 13.1123C15.3009 13.045 15.4781 12.9665 15.628 12.9441C15.778 12.9217 17.0048 12.574 18.3406 12.1927C22.7025 10.9255 27.6642 10.7237 31.699 11.632Z" fill="black" stroke="black"/>
<path d="M21.4075 12.3273C9.16691 14.5141 1.35635 24.203 3.78267 34.1724C7.12226 47.8872 26.9826 53.898 40.1093 45.1846C55.4169 35.0359 49.651 15.9607 30.1586 12.2264C28.4957 11.9012 23.4249 11.9572 21.4075 12.3273ZM31.8625 13.202C34.098 13.7066 37.5466 15.1645 39.305 16.3307C40.8999 17.4073 41.4451 17.6316 40.8045 16.9699C40.4773 16.6111 40.4773 16.6111 40.9135 16.8802C41.1725 17.0484 41.3224 17.2615 41.2543 17.3512C41.1861 17.4522 41.5133 17.8671 41.9767 18.282C42.4402 18.6969 43.3398 19.6277 43.9668 20.3342C44.6075 21.0407 45.2209 21.5453 45.3436 21.4556C45.4663 21.3659 45.4799 21.4107 45.3708 21.5565C45.2754 21.7135 45.4254 22.2181 45.7116 22.6779C49.1875 28.3074 48.5196 35.8209 44.0759 40.8672C31.4263 55.2325 4.38243 48.4143 4.24612 30.8194C4.16434 21.6238 11.5251 14.5028 22.8524 12.7871C24.2155 12.5852 30.3904 12.8656 31.8625 13.202Z" fill="black" stroke="black"/>
<path d="M22.9888 19.0109C20.3307 19.7286 18.1361 21.1865 18.6541 21.8817C18.7632 22.0275 18.7223 22.0836 18.5587 21.9939C18.1634 21.792 17.9589 22.6106 17.9453 24.4498C17.9453 26.1767 18.3679 27.5448 18.8313 27.3094C18.9949 27.2309 19.0358 27.2645 18.9404 27.3991C18.586 27.8701 20.5079 29.4849 22.8116 30.6512C23.6158 31.0549 25.0471 31.8062 26.0012 32.3333C26.9554 32.8603 27.8005 33.2865 27.8823 33.2865C28.0731 33.2865 29.9951 35.0134 30.3222 35.4844C32.2578 38.2431 29.7634 41.5737 25.7286 41.5849C22.021 41.5849 19.5947 39.4542 19.0903 35.7311C18.9267 34.4976 18.8177 34.2957 18.3542 34.2957C17.8363 34.2957 17.809 34.4527 17.7954 38.288C17.7817 41.697 17.8363 42.269 18.1907 42.2129C18.4088 42.1793 18.695 41.8204 18.8177 41.4167C19.1176 40.4859 19.322 40.4971 21.871 41.5849C26.0149 43.3567 31.2628 42.3587 33.3756 39.3982C34.7251 37.503 34.3979 32.8379 32.9121 32.8379C32.7758 32.8379 32.6668 32.6921 32.6668 32.5239C32.6668 32.1202 30.4994 30.5614 30.1723 30.7297C30.036 30.7969 29.9542 30.7184 30.0087 30.5502C30.0496 30.3932 29.8588 30.2699 29.5998 30.2923C29.3408 30.3035 29.1909 30.2362 29.259 30.1465C29.3953 29.9671 28.6047 29.597 28.2367 29.6643C28.1277 29.6867 28.0322 29.6082 28.0322 29.4961C28.0322 29.2494 26.3011 28.3298 25.715 28.2625C25.4969 28.2401 25.2243 28.128 25.1152 28.0271C24.9925 27.9149 25.0471 27.9037 25.2379 27.9934C25.4287 28.0831 25.5787 28.1056 25.5787 28.0495C25.5787 27.9934 25.0607 27.6906 24.42 27.3878C23.7794 27.0851 23.0297 26.6141 22.7434 26.3674C22.4708 26.1094 22.1028 25.9637 21.9528 26.0422C21.8029 26.1207 21.762 26.0646 21.871 25.93C21.9664 25.7842 21.8438 25.403 21.5711 25.0665C19.8945 22.9583 21.8574 19.908 25.0471 19.6501C28.4957 19.381 31.072 21.478 31.6308 24.988C31.6853 25.3693 31.9034 25.5712 32.326 25.616C33.0076 25.6945 33.0076 25.6721 33.0757 21.1192C33.1166 19.0333 32.4896 18.3269 31.8489 19.7174C31.5081 20.4463 31.181 20.4239 29.1363 19.5604C27.1871 18.7306 24.8017 18.5175 22.9888 19.0109ZM20.3171 25.1562C19.9491 25.56 19.7582 25.5039 19.4038 24.8871C19.0358 24.2143 19.4583 24.0012 20.1399 24.5283C20.4398 24.7637 20.4943 24.9656 20.3171 25.1562ZM21.244 26.6029C22.1164 26.8496 22.2527 27.2533 21.6257 27.6794C21.3394 27.8701 21.2167 27.8813 21.2167 27.7018C21.2167 27.5673 21.3394 27.4551 21.4757 27.4551C21.6257 27.4551 21.6802 27.2981 21.5848 27.1187C21.503 26.9281 21.3258 26.7823 21.1895 26.7823C21.0668 26.7823 21.0259 26.9169 21.1077 27.0851C21.1758 27.2533 21.0259 27.5224 20.7533 27.6906C20.4807 27.8588 20.358 27.9149 20.467 27.8028C20.5761 27.6906 20.5079 27.4439 20.3035 27.2533C19.7446 26.7262 19.5129 25.7169 19.9218 25.6048C20.1126 25.5487 20.3035 25.7057 20.358 25.9412C20.3989 26.1767 20.7942 26.4683 21.244 26.6029ZM23.8748 28.6775C23.8339 28.6887 23.5749 28.8569 23.275 29.0363C22.9888 29.2157 22.8252 29.2494 22.9342 29.1036C23.0433 28.9578 22.9342 28.7896 22.7025 28.7111C22.4572 28.6438 22.3481 28.4868 22.4299 28.3635C22.5389 28.2289 22.8525 28.2401 23.275 28.3971C23.6431 28.5317 23.9157 28.6663 23.8748 28.6775Z" fill="black" stroke="black"/>
</svg>
