<svg width="181" height="51" viewBox="0 0 181 51" fill="none" xmlns="http://www.w3.org/2000/svg">
<path d="M79.0313 23C78.8906 21.8125 78.3203 20.8906 77.3203 20.2344C76.3203 19.5781 75.0938 19.25 73.6406 19.25C72.5781 19.25 71.6484 19.4219 70.8516 19.7656C70.0625 20.1094 69.4453 20.582 69 21.1836C68.5625 21.7852 68.3438 22.4687 68.3438 23.2344C68.3438 23.875 68.4961 24.4258 68.8008 24.8867C69.1133 25.3398 69.5117 25.7187 69.9961 26.0234C70.4805 26.3203 70.9883 26.5664 71.5195 26.7617C72.0508 26.9492 72.5391 27.1016 72.9844 27.2187L75.4219 27.875C76.0469 28.0391 76.7422 28.2656 77.5078 28.5547C78.2813 28.8437 79.0195 29.2383 79.7227 29.7383C80.4336 30.2305 81.0195 30.8633 81.4805 31.6367C81.9414 32.4102 82.1719 33.3594 82.1719 34.4844C82.1719 35.7812 81.832 36.9531 81.1523 38C80.4805 39.0469 79.4961 39.8789 78.1992 40.4961C76.9102 41.1133 75.3438 41.4219 73.5 41.4219C71.7813 41.4219 70.293 41.1445 69.0352 40.5898C67.7852 40.0352 66.8008 39.2617 66.082 38.2695C65.3711 37.2773 64.9688 36.125 64.875 34.8125H67.875C67.9531 35.7187 68.2578 36.4687 68.7891 37.0625C69.3281 37.6484 70.0078 38.0859 70.8281 38.375C71.6563 38.6562 72.5469 38.7969 73.5 38.7969C74.6094 38.7969 75.6055 38.6172 76.4883 38.2578C77.3711 37.8906 78.0703 37.3828 78.5859 36.7344C79.1016 36.0781 79.3594 35.3125 79.3594 34.4375C79.3594 33.6406 79.1367 32.9922 78.6914 32.4922C78.2461 31.9922 77.6602 31.5859 76.9336 31.2734C76.207 30.9609 75.4219 30.6875 74.5781 30.4531L71.625 29.6094C69.75 29.0703 68.2656 28.3008 67.1719 27.3008C66.0781 26.3008 65.5313 24.9922 65.5313 23.375C65.5313 22.0312 65.8945 20.8594 66.6211 19.8594C67.3555 18.8516 68.3398 18.0703 69.5742 17.5156C70.8164 16.9531 72.2031 16.6719 73.7344 16.6719C75.2813 16.6719 76.6563 16.9492 77.8594 17.5039C79.0625 18.0508 80.0156 18.8008 80.7187 19.7539C81.4297 20.707 81.8047 21.7891 81.8438 23H79.0313ZM96.8877 29.4219V32H86.3877V29.4219H96.8877ZM114.504 27.0312L112.02 27.7344C111.863 27.3203 111.633 26.918 111.328 26.5273C111.031 26.1289 110.625 25.8008 110.109 25.543C109.594 25.2852 108.934 25.1562 108.129 25.1562C107.027 25.1562 106.109 25.4102 105.375 25.918C104.648 26.418 104.285 27.0547 104.285 27.8281C104.285 28.5156 104.535 29.0586 105.035 29.457C105.535 29.8555 106.316 30.1875 107.379 30.4531L110.051 31.1094C111.66 31.5 112.859 32.0977 113.648 32.9023C114.438 33.6992 114.832 34.7266 114.832 35.9844C114.832 37.0156 114.535 37.9375 113.941 38.75C113.355 39.5625 112.535 40.2031 111.48 40.6719C110.426 41.1406 109.199 41.375 107.801 41.375C105.965 41.375 104.445 40.9766 103.242 40.1797C102.039 39.3828 101.277 38.2187 100.957 36.6875L103.582 36.0312C103.832 37 104.305 37.7266 105 38.2109C105.703 38.6953 106.621 38.9375 107.754 38.9375C109.043 38.9375 110.066 38.6641 110.824 38.1172C111.59 37.5625 111.973 36.8984 111.973 36.125C111.973 35.5 111.754 34.9766 111.316 34.5547C110.879 34.125 110.207 33.8047 109.301 33.5937L106.301 32.8906C104.652 32.5 103.441 31.8945 102.668 31.0742C101.902 30.2461 101.52 29.2109 101.52 27.9687C101.52 26.9531 101.805 26.0547 102.375 25.2734C102.953 24.4922 103.738 23.8789 104.73 23.4336C105.73 22.9883 106.863 22.7656 108.129 22.7656C109.91 22.7656 111.309 23.1562 112.324 23.9375C113.348 24.7187 114.074 25.75 114.504 27.0312ZM121.761 30.1719V41H118.995V17H121.761V25.8125H121.995C122.417 24.8828 123.05 24.1445 123.894 23.5977C124.745 23.043 125.878 22.7656 127.292 22.7656C128.519 22.7656 129.593 23.0117 130.515 23.5039C131.437 23.9883 132.151 24.7344 132.659 25.7422C133.175 26.7422 133.433 28.0156 133.433 29.5625V41H130.667V29.75C130.667 28.3203 130.296 27.2148 129.554 26.4336C128.819 25.6445 127.8 25.25 126.495 25.25C125.589 25.25 124.776 25.4414 124.058 25.8242C123.347 26.207 122.784 26.7656 122.37 27.5C121.964 28.2344 121.761 29.125 121.761 30.1719ZM145.805 41.375C144.18 41.375 142.754 40.9883 141.527 40.2148C140.309 39.4414 139.355 38.3594 138.668 36.9687C137.988 35.5781 137.648 33.9531 137.648 32.0937C137.648 30.2187 137.988 28.582 138.668 27.1836C139.355 25.7852 140.309 24.6992 141.527 23.9258C142.754 23.1523 144.18 22.7656 145.805 22.7656C147.43 22.7656 148.852 23.1523 150.07 23.9258C151.297 24.6992 152.25 25.7852 152.93 27.1836C153.617 28.582 153.961 30.2187 153.961 32.0937C153.961 33.9531 153.617 35.5781 152.93 36.9687C152.25 38.3594 151.297 39.4414 150.07 40.2148C148.852 40.9883 147.43 41.375 145.805 41.375ZM145.805 38.8906C147.039 38.8906 148.055 38.5742 148.852 37.9414C149.648 37.3086 150.238 36.4766 150.621 35.4453C151.004 34.4141 151.195 33.2969 151.195 32.0937C151.195 30.8906 151.004 29.7695 150.621 28.7305C150.238 27.6914 149.648 26.8516 148.852 26.2109C148.055 25.5703 147.039 25.25 145.805 25.25C144.57 25.25 143.555 25.5703 142.758 26.2109C141.961 26.8516 141.371 27.6914 140.988 28.7305C140.605 29.7695 140.414 30.8906 140.414 32.0937C140.414 33.2969 140.605 34.4141 140.988 35.4453C141.371 36.4766 141.961 37.3086 142.758 37.9414C143.555 38.5742 144.57 38.8906 145.805 38.8906ZM158.183 47.75V23H160.854V25.8594H161.183C161.386 25.5469 161.667 25.1484 162.026 24.6641C162.394 24.1719 162.917 23.7344 163.597 23.3516C164.284 22.9609 165.214 22.7656 166.386 22.7656C167.901 22.7656 169.237 23.1445 170.394 23.9023C171.55 24.6602 172.452 25.7344 173.101 27.125C173.749 28.5156 174.073 30.1562 174.073 32.0469C174.073 33.9531 173.749 35.6055 173.101 37.0039C172.452 38.3945 171.554 39.4727 170.405 40.2383C169.257 40.9961 167.933 41.375 166.433 41.375C165.276 41.375 164.351 41.1836 163.655 40.8008C162.96 40.4102 162.425 39.9687 162.05 39.4766C161.675 38.9766 161.386 38.5625 161.183 38.2344H160.948V47.75H158.183ZM160.901 32C160.901 33.3594 161.101 34.5586 161.499 35.5977C161.897 36.6289 162.479 37.4375 163.245 38.0234C164.011 38.6016 164.948 38.8906 166.058 38.8906C167.214 38.8906 168.179 38.5859 168.952 37.9766C169.733 37.3594 170.319 36.5312 170.71 35.4922C171.108 34.4453 171.308 33.2812 171.308 32C171.308 30.7344 171.112 29.5937 170.722 28.5781C170.339 27.5547 169.757 26.7461 168.976 26.1523C168.202 25.5508 167.229 25.25 166.058 25.25C164.933 25.25 163.987 25.5352 163.222 26.1055C162.456 26.668 161.878 27.457 161.487 28.4727C161.097 29.4805 160.901 30.6562 160.901 32Z" fill="white"/>
<path d="M79.0313 23L78.5347 23.0588L78.587 23.5H79.0313V23ZM77.3203 20.2344L77.046 20.6524L77.046 20.6524L77.3203 20.2344ZM70.8516 19.7656L70.6535 19.3065L70.6519 19.3072L70.8516 19.7656ZM69 21.1836L68.5981 20.8861L68.5956 20.8895L69 21.1836ZM68.8008 24.8867L68.3836 25.1625L68.3892 25.1706L68.8008 24.8867ZM69.9961 26.0234L69.7299 26.4467L69.7348 26.4497L69.9961 26.0234ZM71.5195 26.7617L71.347 27.231L71.3531 27.2332L71.5195 26.7617ZM72.9844 27.2187L73.1144 26.7359L73.1116 26.7352L72.9844 27.2187ZM75.4219 27.875L75.2919 28.3578L75.2949 28.3586L75.4219 27.875ZM77.5078 28.5547L77.3312 29.0225L77.3328 29.023L77.5078 28.5547ZM79.7227 29.7383L79.4329 30.1458L79.4381 30.1494L79.7227 29.7383ZM81.4805 31.6367L81.91 31.3807L81.91 31.3807L81.4805 31.6367ZM81.1523 38L80.733 37.7277L80.7316 37.7299L81.1523 38ZM78.1992 40.4961L77.9844 40.0446L77.9833 40.0451L78.1992 40.4961ZM69.0352 40.5898L68.8324 41.0469L68.8334 41.0473L69.0352 40.5898ZM66.082 38.2695L65.6756 38.5608L65.6771 38.5629L66.082 38.2695ZM64.875 34.8125V34.3125H64.338L64.3763 34.8481L64.875 34.8125ZM67.875 34.8125L68.3732 34.7696L68.3338 34.3125H67.875V34.8125ZM68.7891 37.0625L68.4164 37.3959L68.4211 37.401L68.7891 37.0625ZM70.8281 38.375L70.6619 38.8466L70.6673 38.8484L70.8281 38.375ZM76.4883 38.2578L76.6768 38.7209L76.6803 38.7195L76.4883 38.2578ZM78.5859 36.7344L78.9773 37.0456L78.9791 37.0433L78.5859 36.7344ZM78.6914 32.4922L79.0648 32.1596L79.0648 32.1596L78.6914 32.4922ZM76.9336 31.2734L76.736 31.7328L76.736 31.7328L76.9336 31.2734ZM74.5781 30.4531L74.4408 30.9339L74.4443 30.9349L74.5781 30.4531ZM71.625 29.6094L71.4868 30.0899L71.4876 30.0901L71.625 29.6094ZM67.1719 27.3008L66.8345 27.6698L66.8345 27.6698L67.1719 27.3008ZM66.6211 19.8594L66.217 19.5649L66.2166 19.5655L66.6211 19.8594ZM69.5742 17.5156L69.7792 17.9717L69.7805 17.9711L69.5742 17.5156ZM77.8594 17.5039L77.65 17.958L77.6525 17.9591L77.8594 17.5039ZM80.7187 19.7539L80.3164 20.0507L80.318 20.0529L80.7187 19.7539ZM81.8438 23V23.5H82.3601L82.3435 22.9839L81.8438 23ZM79.0313 23L79.5278 22.9412C79.3698 21.607 78.7181 20.5536 77.5946 19.8164L77.3203 20.2344L77.046 20.6524C77.9225 21.2276 78.4115 22.018 78.5347 23.0588L79.0313 23ZM77.3203 20.2344L77.5946 19.8164C76.4971 19.0961 75.1701 18.75 73.6406 18.75V19.25V19.75C75.0174 19.75 76.1435 20.0602 77.046 20.6524L77.3203 20.2344ZM73.6406 19.25V18.75C72.5249 18.75 71.5253 18.9305 70.6535 19.3065L70.8516 19.7656L71.0496 20.2247C71.7716 19.9133 72.6314 19.75 73.6406 19.75V19.25ZM70.8516 19.7656L70.6519 19.3072C69.7947 19.6807 69.103 20.2041 68.5981 20.8861L69 21.1836L69.4019 21.4811C69.7877 20.9599 70.3303 20.5381 71.0513 20.224L70.8516 19.7656ZM69 21.1836L68.5956 20.8895C68.0941 21.5792 67.8438 22.3664 67.8438 23.2344H68.3438H68.8438C68.8438 22.5711 69.0309 21.9911 69.4044 21.4777L69 21.1836ZM68.3438 23.2344H67.8438C67.8438 23.957 68.0167 24.6073 68.3837 25.1624L68.8008 24.8867L69.2179 24.611C68.9755 24.2443 68.8438 23.793 68.8438 23.2344H68.3438ZM68.8008 24.8867L68.3892 25.1706C68.7417 25.6818 69.1904 26.1073 69.7299 26.4467L69.9961 26.0234L70.2623 25.6002C69.833 25.3302 69.4849 24.9979 69.2124 24.6029L68.8008 24.8867ZM69.9961 26.0234L69.7348 26.4497C70.2472 26.7638 70.7847 27.0243 71.347 27.231L71.5195 26.7617L71.6921 26.2924C71.1919 26.1085 70.7138 25.8769 70.2574 25.5971L69.9961 26.0234ZM71.5195 26.7617L71.3531 27.2332C71.8945 27.4243 72.3961 27.581 72.8571 27.7023L72.9844 27.2187L73.1116 26.7352C72.682 26.6222 72.207 26.4741 71.6859 26.2902L71.5195 26.7617ZM72.9844 27.2187L72.8544 27.7016L75.2919 28.3578L75.4219 27.875L75.5519 27.3922L73.1144 26.7359L72.9844 27.2187ZM75.4219 27.875L75.2949 28.3586C75.8994 28.5173 76.5778 28.738 77.3312 29.0225L77.5078 28.5547L77.6844 28.0869C76.9066 27.7932 76.1944 27.5608 75.5488 27.3914L75.4219 27.875ZM77.5078 28.5547L77.3328 29.023C78.0637 29.2962 78.7636 29.6698 79.4329 30.1458L79.7227 29.7383L80.0124 29.3308C79.2755 28.8067 78.4988 28.3913 77.6829 28.0863L77.5078 28.5547ZM79.7227 29.7383L79.4381 30.1494C80.0877 30.5991 80.6251 31.1781 81.051 31.8927L81.4805 31.6367L81.91 31.3807C81.4139 30.5484 80.7795 29.8618 80.0073 29.3272L79.7227 29.7383ZM81.4805 31.6367L81.051 31.8927C81.4556 32.5716 81.6719 33.4272 81.6719 34.4844H82.1719H82.6719C82.6719 33.2915 82.4273 32.2487 81.91 31.3807L81.4805 31.6367ZM82.1719 34.4844H81.6719C81.6719 35.6886 81.3579 36.7652 80.733 37.7277L81.1523 38L81.5717 38.2723C82.3061 37.1411 82.6719 35.8739 82.6719 34.4844H82.1719ZM81.1523 38L80.7316 37.7299C80.1174 38.6868 79.2103 39.4612 77.9844 40.0446L78.1992 40.4961L78.4141 40.9476C79.7819 40.2966 80.8435 39.407 81.5731 38.2701L81.1523 38ZM78.1992 40.4961L77.9833 40.0451C76.7782 40.6221 75.2899 40.9219 73.5 40.9219V41.4219V41.9219C75.3976 41.9219 77.0421 41.6045 78.4151 40.9471L78.1992 40.4961ZM73.5 41.4219V40.9219C71.8339 40.9219 70.4174 40.6529 69.2369 40.1324L69.0352 40.5898L68.8334 41.0473C70.1686 41.6361 71.7286 41.9219 73.5 41.9219V41.4219ZM69.0352 40.5898L69.238 40.1328C68.059 39.6097 67.1481 38.8889 66.487 37.9762L66.082 38.2695L65.6771 38.5629C66.4534 39.6345 67.5113 40.4607 68.8324 41.0469L69.0352 40.5898ZM66.082 38.2695L66.4885 37.9783C65.8355 37.067 65.4614 36.0048 65.3737 34.7769L64.875 34.8125L64.3763 34.8481C64.4761 36.2452 64.9067 37.4877 65.6756 38.5608L66.082 38.2695ZM64.875 34.8125V35.3125H67.875V34.8125V34.3125H64.875V34.8125ZM67.875 34.8125L67.3768 34.8554C67.4629 35.8536 67.803 36.7103 68.4164 37.3959L68.7891 37.0625L69.1617 36.7291C68.7126 36.2272 68.4434 35.5839 68.3732 34.7696L67.875 34.8125ZM68.7891 37.0625L68.4211 37.401C69.0205 38.0526 69.7718 38.5329 70.662 38.8466L70.8281 38.375L70.9943 37.9034C70.2438 37.639 69.6357 37.2443 69.157 36.724L68.7891 37.0625ZM70.8281 38.375L70.6673 38.8484C71.5517 39.1488 72.4971 39.2969 73.5 39.2969V38.7969V38.2969C72.5967 38.2969 71.7608 38.1637 70.9889 37.9016L70.8281 38.375ZM73.5 38.7969V39.2969C74.6636 39.2969 75.7251 39.1083 76.6768 38.7209L76.4883 38.2578L76.2998 37.7947C75.4858 38.1261 74.5552 38.2969 73.5 38.2969V38.7969ZM76.4883 38.2578L76.6803 38.7195C77.6291 38.3249 78.4014 37.7698 78.9773 37.0456L78.5859 36.7344L78.1946 36.4232C77.7392 36.9958 77.1131 37.4564 76.2963 37.7962L76.4883 38.2578ZM78.5859 36.7344L78.9791 37.0433C79.5675 36.2945 79.8594 35.4187 79.8594 34.4375H79.3594H78.8594C78.8594 35.2063 78.6357 35.8618 78.1928 36.4255L78.5859 36.7344ZM79.3594 34.4375H79.8594C79.8594 33.5426 79.6067 32.7681 79.0648 32.1596L78.6914 32.4922L78.318 32.8247C78.6668 33.2163 78.8594 33.7387 78.8594 34.4375H79.3594ZM78.6914 32.4922L79.0648 32.1596C78.5628 31.596 77.9128 31.1503 77.1311 30.8141L76.9336 31.2734L76.736 31.7328C77.4075 32.0215 77.9294 32.3884 78.318 32.8247L78.6914 32.4922ZM76.9336 31.2734L77.1311 30.8141C76.3818 30.4918 75.5751 30.2111 74.7119 29.9714L74.5781 30.4531L74.4443 30.9349C75.2686 31.1639 76.0323 31.43 76.736 31.7328L76.9336 31.2734ZM74.5781 30.4531L74.7155 29.9724L71.7624 29.1286L71.625 29.6094L71.4876 30.0901L74.4408 30.9339L74.5781 30.4531ZM71.625 29.6094L71.7632 29.1288C69.9398 28.6046 68.531 27.8659 67.5093 26.9318L67.1719 27.3008L66.8345 27.6698C68.0002 28.7356 69.5602 29.536 71.4868 30.0899L71.625 29.6094ZM67.1719 27.3008L67.5093 26.9318C66.5292 26.0357 66.0313 24.8661 66.0313 23.375H65.5313H65.0313C65.0313 25.1183 65.627 26.5658 66.8345 27.6698L67.1719 27.3008ZM65.5313 23.375H66.0313C66.0313 22.1271 66.3666 21.0603 67.0256 20.1533L66.6211 19.8594L66.2166 19.5655C65.4225 20.6584 65.0313 21.9354 65.0313 23.375H65.5313ZM66.6211 19.8594L67.0252 20.1538C67.704 19.2222 68.6171 18.4939 69.7792 17.9717L69.5742 17.5156L69.3693 17.0596C68.0626 17.6468 67.0069 18.4809 66.217 19.5649L66.6211 19.8594ZM69.5742 17.5156L69.7805 17.9711C70.9503 17.4414 72.2655 17.1719 73.7344 17.1719V16.6719V16.1719C72.1408 16.1719 70.6825 16.4649 69.368 17.0601L69.5742 17.5156ZM73.7344 16.6719V17.1719C75.221 17.1719 76.5227 17.4382 77.65 17.958L77.8594 17.5039L78.0687 17.0498C76.7898 16.4602 75.3415 16.1719 73.7344 16.1719V16.6719ZM77.8594 17.5039L77.6525 17.9591C78.7872 18.4749 79.6695 19.1739 80.3164 20.0507L80.7187 19.7539L81.1211 19.4571C80.3617 18.4277 79.3378 17.6267 78.0663 17.0487L77.8594 17.5039ZM80.7187 19.7539L80.318 20.0529C80.9666 20.9224 81.3082 21.9053 81.344 23.0161L81.8438 23L82.3435 22.9839C82.3012 21.6728 81.8928 20.4917 81.1195 19.455L80.7187 19.7539ZM81.8438 23V22.5H79.0313V23V23.5H81.8438V23ZM96.8877 29.4219H97.3877V28.9219H96.8877V29.4219ZM96.8877 32V32.5H97.3877V32H96.8877ZM86.3877 32H85.8877V32.5H86.3877V32ZM86.3877 29.4219V28.9219H85.8877V29.4219H86.3877ZM96.8877 29.4219H96.3877V32H96.8877H97.3877V29.4219H96.8877ZM96.8877 32V31.5H86.3877V32V32.5H96.8877V32ZM86.3877 32H86.8877V29.4219H86.3877H85.8877V32H86.3877ZM86.3877 29.4219V29.9219H96.8877V29.4219V28.9219H86.3877V29.4219ZM114.504 27.0312L114.64 27.5124L115.145 27.3695L114.978 26.8723L114.504 27.0312ZM112.02 27.7344L111.552 27.9109L111.714 28.3405L112.156 28.2155L112.02 27.7344ZM111.328 26.5273L110.927 26.8262L110.934 26.8349L111.328 26.5273ZM110.109 25.543L110.333 25.0958L110.333 25.0958L110.109 25.543ZM105.375 25.918L105.658 26.3299L105.659 26.3292L105.375 25.918ZM105.035 29.457L104.724 29.8481L104.724 29.8481L105.035 29.457ZM107.379 30.4531L107.258 30.9382L107.26 30.9387L107.379 30.4531ZM110.051 31.1094L109.932 31.5949L109.933 31.5953L110.051 31.1094ZM113.648 32.9023L113.291 33.2524L113.293 33.2542L113.648 32.9023ZM113.941 38.75L113.538 38.455L113.536 38.4575L113.941 38.75ZM103.242 40.1797L103.518 39.7628L103.518 39.7628L103.242 40.1797ZM100.957 36.6875L100.836 36.2024L100.369 36.3191L100.468 36.7899L100.957 36.6875ZM103.582 36.0312L104.066 35.9063L103.942 35.4258L103.461 35.5462L103.582 36.0312ZM105 38.2109L104.714 38.6212L104.716 38.6227L105 38.2109ZM110.824 38.1172L111.117 38.5226L111.118 38.5221L110.824 38.1172ZM111.316 34.5547L110.966 34.9114L110.969 34.9146L111.316 34.5547ZM109.301 33.5937L109.187 34.0806L109.187 34.0807L109.301 33.5937ZM106.301 32.8906L106.185 33.3772L106.187 33.3774L106.301 32.8906ZM102.668 31.0742L102.301 31.4137L102.304 31.4172L102.668 31.0742ZM102.375 25.2734L101.973 24.976L101.971 24.9786L102.375 25.2734ZM104.73 23.4336L104.527 22.9768L104.526 22.9774L104.73 23.4336ZM112.324 23.9375L112.019 24.3338L112.021 24.3349L112.324 23.9375ZM114.504 27.0312L114.368 26.5501L111.883 27.2533L112.02 27.7344L112.156 28.2155L114.64 27.5124L114.504 27.0312ZM112.02 27.7344L112.487 27.5578C112.311 27.0914 112.054 26.6455 111.722 26.2198L111.328 26.5273L110.934 26.8349C111.211 27.1905 111.415 27.5492 111.552 27.9109L112.02 27.7344ZM111.328 26.5273L111.729 26.2286C111.379 25.7582 110.907 25.3829 110.333 25.0958L110.109 25.543L109.886 25.9902C110.343 26.2186 110.684 26.4996 110.927 26.8261L111.328 26.5273ZM110.109 25.543L110.333 25.0958C109.726 24.7923 108.982 24.6562 108.129 24.6562V25.1562V25.6562C108.885 25.6562 109.461 25.778 109.886 25.9902L110.109 25.543ZM108.129 25.1562V24.6562C106.95 24.6562 105.926 24.9288 105.091 25.5067L105.375 25.918L105.659 26.3292C106.292 25.8915 107.105 25.6562 108.129 25.6562V25.1562ZM105.375 25.918L105.092 25.5061C104.251 26.0842 103.785 26.865 103.785 27.8281H104.285H104.785C104.785 27.2444 105.045 26.7518 105.658 26.3299L105.375 25.918ZM104.285 27.8281H103.785C103.785 28.6547 104.095 29.3468 104.724 29.8481L105.035 29.457L105.347 29.066C104.976 28.7703 104.785 28.3766 104.785 27.8281H104.285ZM105.035 29.457L104.724 29.8481C105.306 30.3122 106.168 30.6659 107.258 30.9382L107.379 30.4531L107.5 29.9681C106.464 29.7091 105.764 29.3988 105.347 29.066L105.035 29.457ZM107.379 30.4531L107.26 30.9387L109.932 31.5949L110.051 31.1094L110.17 30.6238L107.498 29.9676L107.379 30.4531ZM110.051 31.1094L109.933 31.5953C111.491 31.9736 112.592 32.5388 113.291 33.2524L113.648 32.9023L114.005 32.5523C113.127 31.6565 111.829 31.0264 110.169 30.6235L110.051 31.1094ZM113.648 32.9023L113.293 33.2542C113.978 33.9457 114.332 34.8408 114.332 35.9844H114.832H115.332C115.332 34.6123 114.897 33.4528 114.004 32.5505L113.648 32.9023ZM114.832 35.9844H114.332C114.332 36.9124 114.067 37.7304 113.538 38.455L113.941 38.75L114.345 39.045C115.003 38.1446 115.332 37.1189 115.332 35.9844H114.832ZM113.941 38.75L113.536 38.4575C113.009 39.188 112.264 39.7766 111.277 40.215L111.48 40.6719L111.684 41.1288C112.807 40.6296 113.702 39.937 114.347 39.0425L113.941 38.75ZM111.48 40.6719L111.277 40.215C110.299 40.65 109.144 40.875 107.801 40.875V41.375V41.875C109.255 41.875 110.553 41.6313 111.684 41.1288L111.48 40.6719ZM107.801 41.375V40.875C106.036 40.875 104.62 40.4924 103.518 39.7628L103.242 40.1797L102.966 40.5965C104.271 41.4607 105.893 41.875 107.801 41.875V41.375ZM103.242 40.1797L103.518 39.7628C102.435 39.0451 101.742 37.9995 101.446 36.5851L100.957 36.6875L100.468 36.7899C100.812 38.438 101.643 39.7205 102.966 40.5965L103.242 40.1797ZM100.957 36.6875L101.078 37.1726L103.703 36.5163L103.582 36.0312L103.461 35.5462L100.836 36.2024L100.957 36.6875ZM103.582 36.0312L103.098 36.1562C103.372 37.2187 103.904 38.0565 104.714 38.6212L105 38.2109L105.286 37.8007C104.706 37.3966 104.292 36.7813 104.066 35.9063L103.582 36.0312ZM105 38.2109L104.716 38.6227C105.526 39.1806 106.552 39.4375 107.754 39.4375V38.9375V38.4375C106.69 38.4375 105.88 38.21 105.284 37.7992L105 38.2109ZM107.754 38.9375V39.4375C109.109 39.4375 110.247 39.1504 111.117 38.5226L110.824 38.1172L110.532 37.7117C109.886 38.1777 108.977 38.4375 107.754 38.4375V38.9375ZM110.824 38.1172L111.118 38.5221C111.981 37.8969 112.473 37.095 112.473 36.125H111.973H111.473C111.473 36.7019 111.199 37.2281 110.531 37.7123L110.824 38.1172ZM111.973 36.125H112.473C112.473 35.3686 112.202 34.7138 111.663 34.1948L111.316 34.5547L110.969 34.9146C111.306 35.2393 111.473 35.6314 111.473 36.125H111.973ZM111.316 34.5547L111.667 34.198C111.138 33.6788 110.367 33.3286 109.414 33.1068L109.301 33.5937L109.187 34.0807C110.047 34.2808 110.62 34.5712 110.966 34.9114L111.316 34.5547ZM109.301 33.5937L109.415 33.1069L106.415 32.4038L106.301 32.8906L106.187 33.3774L109.187 34.0806L109.301 33.5937ZM106.301 32.8906L106.416 32.4041C104.818 32.0254 103.712 31.4531 103.032 30.7312L102.668 31.0742L102.304 31.4172C103.17 32.336 104.487 32.9746 106.185 33.3772L106.301 32.8906ZM102.668 31.0742L103.035 30.7348C102.364 30.0087 102.02 29.099 102.02 27.9687H101.52H101.02C101.02 29.3229 101.441 30.4834 102.301 31.4136L102.668 31.0742ZM101.52 27.9687H102.02C102.02 27.0535 102.274 26.2594 102.779 25.5682L102.375 25.2734L101.971 24.9786C101.335 25.8499 101.02 26.8528 101.02 27.9687H101.52ZM102.375 25.2734L102.777 25.5709C103.298 24.8665 104.012 24.3042 104.935 23.8898L104.73 23.4336L104.526 22.9774C103.465 23.4536 102.608 24.1179 101.973 24.976L102.375 25.2734ZM104.73 23.4336L104.934 23.8904C105.861 23.4777 106.922 23.2656 108.129 23.2656V22.7656V22.2656C106.804 22.2656 105.6 22.4989 104.527 22.9768L104.73 23.4336ZM108.129 22.7656V23.2656C109.842 23.2656 111.12 23.6417 112.019 24.3338L112.324 23.9375L112.629 23.5412C111.498 22.6708 109.978 22.2656 108.129 22.2656V22.7656ZM112.324 23.9375L112.021 24.3349C112.961 25.0524 113.63 25.9988 114.03 27.1902L114.504 27.0312L114.978 26.8723C114.518 25.5012 113.735 24.3851 112.628 23.5401L112.324 23.9375ZM121.761 41V41.5H122.261V41H121.761ZM118.995 41H118.495V41.5H118.995V41ZM118.995 17V16.5H118.495V17H118.995ZM121.761 17H122.261V16.5H121.761V17ZM121.761 25.8125H121.261V26.3125H121.761V25.8125ZM121.995 25.8125V26.3125H122.317L122.45 26.0191L121.995 25.8125ZM123.894 23.5977L124.166 24.0172L124.166 24.0166L123.894 23.5977ZM130.515 23.5039L130.279 23.945L130.282 23.9465L130.515 23.5039ZM132.659 25.7422L132.213 25.9672L132.215 25.9713L132.659 25.7422ZM133.433 41V41.5H133.933V41H133.433ZM130.667 41H130.167V41.5H130.667V41ZM129.554 26.4336L129.188 26.7743L129.191 26.778L129.554 26.4336ZM124.058 25.8242L123.823 25.3829L123.821 25.384L124.058 25.8242ZM122.37 27.5L121.935 27.2544L121.933 27.258L122.37 27.5ZM121.761 30.1719H121.261V41H121.761H122.261V30.1719H121.761ZM121.761 41V40.5H118.995V41V41.5H121.761V41ZM118.995 41H119.495V17H118.995H118.495V41H118.995ZM118.995 17V17.5H121.761V17V16.5H118.995V17ZM121.761 17H121.261V25.8125H121.761H122.261V17H121.761ZM121.761 25.8125V26.3125H121.995V25.8125V25.3125H121.761V25.8125ZM121.995 25.8125L122.45 26.0191C122.833 25.1751 123.403 24.5113 124.166 24.0172L123.894 23.5977L123.622 23.1781C122.696 23.7778 122.001 24.5906 121.54 25.6059L121.995 25.8125ZM123.894 23.5977L124.166 24.0166C124.911 23.5317 125.938 23.2656 127.292 23.2656V22.7656V22.2656C125.818 22.2656 124.579 22.5542 123.621 23.1787L123.894 23.5977ZM127.292 22.7656V23.2656C128.451 23.2656 129.441 23.4977 130.279 23.945L130.515 23.5039L130.75 23.0628C129.744 22.5257 128.586 22.2656 127.292 22.2656V22.7656ZM130.515 23.5039L130.282 23.9465C131.104 24.3783 131.748 25.0442 132.213 25.9672L132.659 25.7422L133.106 25.5172C132.555 24.4245 131.769 23.5982 130.747 23.0613L130.515 23.5039ZM132.659 25.7422L132.215 25.9713C132.683 26.879 132.933 28.067 132.933 29.5625H133.433H133.933C133.933 27.9642 133.667 26.6054 133.104 25.513L132.659 25.7422ZM133.433 29.5625H132.933V41H133.433H133.933V29.5625H133.433ZM133.433 41V40.5H130.667V41V41.5H133.433V41ZM130.667 41H131.167V29.75H130.667H130.167V41H130.667ZM130.667 29.75H131.167C131.167 28.2351 130.772 26.9905 129.916 26.0892L129.554 26.4336L129.191 26.778C129.819 27.4392 130.167 28.4055 130.167 29.75H130.667ZM129.554 26.4336L129.92 26.093C129.071 25.1813 127.907 24.75 126.495 24.75V25.25V25.75C127.693 25.75 128.567 26.1078 129.188 26.7742L129.554 26.4336ZM126.495 25.25V24.75C125.516 24.75 124.622 24.9574 123.823 25.3829L124.058 25.8242L124.293 26.2655C124.931 25.9254 125.661 25.75 126.495 25.75V25.25ZM124.058 25.8242L123.821 25.384C123.023 25.8136 122.393 26.4415 121.935 27.2544L122.37 27.5L122.806 27.7456C123.175 27.0897 123.671 26.6004 124.295 26.2645L124.058 25.8242ZM122.37 27.5L121.933 27.258C121.476 28.0826 121.261 29.061 121.261 30.1719H121.761H122.261C122.261 29.189 122.451 28.3861 122.808 27.742L122.37 27.5ZM141.527 40.2148L141.259 40.637L141.261 40.6378L141.527 40.2148ZM138.668 36.9687L138.219 37.1883L138.22 37.1903L138.668 36.9687ZM138.668 27.1836L138.219 26.963L138.218 26.965L138.668 27.1836ZM141.527 23.9258L141.261 23.5028L141.259 23.5036L141.527 23.9258ZM150.07 23.9258L149.802 24.3479L149.804 24.3487L150.07 23.9258ZM152.93 27.1836L152.48 27.4022L152.481 27.4042L152.93 27.1836ZM152.93 36.9687L152.481 36.7472L152.48 36.7492L152.93 36.9687ZM150.07 40.2148L149.804 39.7919L149.802 39.7927L150.07 40.2148ZM148.852 37.9414L148.541 37.5499L148.541 37.5499L148.852 37.9414ZM150.621 35.4453L151.09 35.6193L151.09 35.6193L150.621 35.4453ZM150.621 28.7305L151.09 28.5576L151.09 28.5576L150.621 28.7305ZM148.852 26.2109L149.165 25.8212L149.165 25.8212L148.852 26.2109ZM142.758 26.2109L142.445 25.8212L142.445 25.8212L142.758 26.2109ZM140.988 28.7305L140.519 28.5576L140.519 28.5576L140.988 28.7305ZM140.988 35.4453L140.52 35.6193L140.52 35.6193L140.988 35.4453ZM142.758 37.9414L143.069 37.5499L143.069 37.5499L142.758 37.9414ZM145.805 41.375V40.875C144.262 40.875 142.931 40.5091 141.794 39.7919L141.527 40.2148L141.261 40.6378C142.576 41.4675 144.097 41.875 145.805 41.875V41.375ZM141.527 40.2148L141.795 39.7927C140.66 39.072 139.766 38.062 139.116 36.7472L138.668 36.9687L138.22 37.1903C138.945 38.6567 139.958 39.8108 141.259 40.637L141.527 40.2148ZM138.668 36.9687L139.117 36.7492C138.477 35.4393 138.148 33.8922 138.148 32.0937H137.648H137.148C137.148 34.0141 137.5 35.7169 138.219 37.1883L138.668 36.9687ZM137.648 32.0937H138.148C138.148 30.2791 138.477 28.7199 139.118 27.4022L138.668 27.1836L138.218 26.965C137.499 28.4442 137.148 30.1584 137.148 32.0937H137.648ZM138.668 27.1836L139.117 27.4042C139.767 26.0815 140.66 25.0682 141.795 24.3479L141.527 23.9258L141.259 23.5036C139.957 24.3303 138.944 25.4888 138.219 26.963L138.668 27.1836ZM141.527 23.9258L141.794 24.3487C142.931 23.6315 144.262 23.2656 145.805 23.2656V22.7656V22.2656C144.097 22.2656 142.576 22.6732 141.261 23.5028L141.527 23.9258ZM145.805 22.7656V23.2656C147.347 23.2656 148.674 23.6316 149.802 24.3479L150.07 23.9258L150.338 23.5036C149.03 22.6731 147.512 22.2656 145.805 22.2656V22.7656ZM150.07 23.9258L149.804 24.3487C150.946 25.0688 151.838 26.0813 152.48 27.4022L152.93 27.1836L153.379 26.965C152.662 25.489 151.648 24.3296 150.337 23.5028L150.07 23.9258ZM152.93 27.1836L152.481 27.4042C153.129 28.7214 153.461 30.2799 153.461 32.0937H153.961H154.461C154.461 30.1576 154.106 28.4426 153.378 26.963L152.93 27.1836ZM153.961 32.0937H153.461C153.461 33.8914 153.129 35.4378 152.481 36.7472L152.93 36.9687L153.378 37.1903C154.106 35.7184 154.461 34.0149 154.461 32.0937H153.961ZM152.93 36.9687L152.48 36.7492C151.839 38.0623 150.946 39.0714 149.804 39.7919L150.07 40.2148L150.337 40.6378C151.647 39.8114 152.661 38.6565 153.379 37.1883L152.93 36.9687ZM150.07 40.2148L149.802 39.7927C148.674 40.5091 147.347 40.875 145.805 40.875V41.375V41.875C147.512 41.875 149.03 41.4675 150.338 40.637L150.07 40.2148ZM145.805 38.8906V39.3906C147.127 39.3906 148.26 39.05 149.163 38.333L148.852 37.9414L148.541 37.5499C147.85 38.0984 146.951 38.3906 145.805 38.3906V38.8906ZM148.852 37.9414L149.163 38.333C150.037 37.6388 150.678 36.7289 151.09 35.6193L150.621 35.4453L150.152 35.2713C149.799 36.2242 149.26 36.9784 148.541 37.5499L148.852 37.9414ZM150.621 35.4453L151.09 35.6193C151.495 34.5274 151.695 33.3507 151.695 32.0937H151.195H150.695C150.695 33.243 150.513 34.3007 150.152 35.2713L150.621 35.4453ZM151.195 32.0937H151.695C151.695 30.8368 151.495 29.6566 151.09 28.5576L150.621 28.7305L150.152 28.9033C150.513 29.8824 150.695 30.9445 150.695 32.0937H151.195ZM150.621 28.7305L151.09 28.5576C150.679 27.4408 150.038 26.5234 149.165 25.8212L148.852 26.2109L148.538 26.6006C149.259 27.1798 149.798 27.942 150.152 28.9033L150.621 28.7305ZM148.852 26.2109L149.165 25.8212C148.262 25.0953 147.129 24.75 145.805 24.75V25.25V25.75C146.95 25.75 147.848 26.0453 148.538 26.6006L148.852 26.2109ZM145.805 25.25V24.75C144.481 24.75 143.348 25.0953 142.445 25.8212L142.758 26.2109L143.071 26.6006C143.762 26.0453 144.66 25.75 145.805 25.75V25.25ZM142.758 26.2109L142.445 25.8212C141.571 26.5234 140.931 27.4408 140.519 28.5576L140.988 28.7305L141.457 28.9033C141.812 27.942 142.351 27.1798 143.071 26.6006L142.758 26.2109ZM140.988 28.7305L140.519 28.5576C140.114 29.6566 139.914 30.8368 139.914 32.0937H140.414H140.914C140.914 30.9445 141.097 29.8824 141.457 28.9033L140.988 28.7305ZM140.414 32.0937H139.914C139.914 33.3507 140.114 34.5274 140.52 35.6193L140.988 35.4453L141.457 35.2713C141.097 34.3007 140.914 33.243 140.914 32.0937H140.414ZM140.988 35.4453L140.52 35.6193C140.931 36.7289 141.573 37.6388 142.447 38.333L142.758 37.9414L143.069 37.5499C142.349 36.9784 141.811 36.2242 141.457 35.2713L140.988 35.4453ZM142.758 37.9414L142.447 38.333C143.35 39.05 144.482 39.3906 145.805 39.3906V38.8906V38.3906C144.658 38.3906 143.76 38.0984 143.069 37.5499L142.758 37.9414ZM158.183 47.75H157.683V48.25H158.183V47.75ZM158.183 23V22.5H157.683V23H158.183ZM160.854 23H161.354V22.5H160.854V23ZM160.854 25.8594H160.354V26.3594H160.854V25.8594ZM161.183 25.8594V26.3594H161.454L161.602 26.1319L161.183 25.8594ZM162.026 24.6641L161.626 24.3651L161.625 24.3661L162.026 24.6641ZM163.597 23.3516L163.842 23.7872L163.844 23.7863L163.597 23.3516ZM170.394 23.9023L170.668 23.4842L170.668 23.4842L170.394 23.9023ZM173.101 27.125L173.554 26.9137L173.554 26.9137L173.101 27.125ZM173.101 37.0039L173.554 37.2152L173.554 37.2142L173.101 37.0039ZM170.405 40.2383L170.681 40.6556L170.683 40.6543L170.405 40.2383ZM163.655 40.8008L163.41 41.2367L163.414 41.2388L163.655 40.8008ZM162.05 39.4766L161.65 39.7766L161.652 39.7796L162.05 39.4766ZM161.183 38.2344L161.608 37.9712L161.461 37.7344H161.183V38.2344ZM160.948 38.2344V37.7344H160.448V38.2344H160.948ZM160.948 47.75V48.25H161.448V47.75H160.948ZM161.499 35.5977L161.032 35.7767L161.033 35.7779L161.499 35.5977ZM163.245 38.0234L162.941 38.4205L162.944 38.4225L163.245 38.0234ZM168.952 37.9766L169.262 38.3693L169.262 38.3689L168.952 37.9766ZM170.71 35.4922L170.243 35.3143L170.242 35.3162L170.71 35.4922ZM170.722 28.5781L170.253 28.7533L170.255 28.7576L170.722 28.5781ZM168.976 26.1523L168.669 26.547L168.673 26.5504L168.976 26.1523ZM163.222 26.1055L163.518 26.5084L163.52 26.5064L163.222 26.1055ZM161.487 28.4727L161.954 28.6534L161.954 28.6521L161.487 28.4727ZM158.183 47.75H158.683V23H158.183H157.683V47.75H158.183ZM158.183 23V23.5H160.854V23V22.5H158.183V23ZM160.854 23H160.354V25.8594H160.854H161.354V23H160.854ZM160.854 25.8594V26.3594H161.183V25.8594V25.3594H160.854V25.8594ZM161.183 25.8594L161.602 26.1319C161.797 25.8316 162.071 25.4424 162.428 24.962L162.026 24.6641L161.625 24.3661C161.263 24.8544 160.974 25.2621 160.763 25.5869L161.183 25.8594ZM162.026 24.6641L162.427 24.963C162.743 24.5397 163.207 24.1447 163.842 23.7872L163.597 23.3516L163.351 22.9159C162.627 23.324 162.044 23.8041 161.626 24.3651L162.026 24.6641ZM163.597 23.3516L163.844 23.7863C164.428 23.4542 165.262 23.2656 166.386 23.2656V22.7656V22.2656C165.166 22.2656 164.14 22.4677 163.35 22.9168L163.597 23.3516ZM166.386 22.7656V23.2656C167.814 23.2656 169.052 23.6212 170.119 24.3205L170.394 23.9023L170.668 23.4842C169.422 22.6679 167.989 22.2656 166.386 22.2656V22.7656ZM170.394 23.9023L170.119 24.3205C171.19 25.0219 172.034 26.0204 172.647 27.3363L173.101 27.125L173.554 26.9137C172.87 25.4483 171.91 24.2984 170.668 23.4842L170.394 23.9023ZM173.101 27.125L172.647 27.3363C173.259 28.6472 173.573 30.2127 173.573 32.0469H174.073H174.573C174.573 30.0998 174.239 28.384 173.554 26.9137L173.101 27.125ZM174.073 32.0469H173.573C173.573 33.8972 173.259 35.4747 172.647 36.7936L173.101 37.0039L173.554 37.2142C174.24 35.7362 174.573 34.009 174.573 32.0469H174.073ZM173.101 37.0039L172.647 36.7926C172.033 38.1097 171.192 39.113 170.128 39.8223L170.405 40.2383L170.683 40.6543C171.916 39.8323 172.871 38.6794 173.554 37.2152L173.101 37.0039ZM170.405 40.2383L170.13 39.821C169.071 40.52 167.844 40.875 166.433 40.875V41.375V41.875C168.021 41.875 169.443 41.4722 170.681 40.6556L170.405 40.2383ZM166.433 41.375V40.875C165.325 40.875 164.492 40.6905 163.896 40.3628L163.655 40.8008L163.414 41.2388C164.209 41.6766 165.228 41.875 166.433 41.875V41.375ZM163.655 40.8008L163.9 40.3649C163.248 39.9984 162.771 39.5982 162.448 39.1735L162.05 39.4766L161.652 39.7796C162.079 40.3393 162.672 40.8219 163.41 41.2367L163.655 40.8008ZM162.05 39.4766L162.45 39.1766C162.079 38.6822 161.8 38.2814 161.608 37.9712L161.183 38.2344L160.757 38.4976C160.972 38.8436 161.271 39.271 161.65 39.7766L162.05 39.4766ZM161.183 38.2344V37.7344H160.948V38.2344V38.7344H161.183V38.2344ZM160.948 38.2344H160.448V47.75H160.948H161.448V38.2344H160.948ZM160.948 47.75V47.25H158.183V47.75V48.25H160.948V47.75ZM160.901 32H160.401C160.401 33.4074 160.608 34.6694 161.032 35.7767L161.499 35.5977L161.966 35.4186C161.594 34.4478 161.401 33.3113 161.401 32H160.901ZM161.499 35.5977L161.033 35.7779C161.459 36.8821 162.092 37.7708 162.941 38.4205L163.245 38.0234L163.549 37.6264C162.867 37.1042 162.336 36.3757 161.965 35.4175L161.499 35.5977ZM163.245 38.0234L162.944 38.4225C163.809 39.076 164.857 39.3906 166.058 39.3906V38.8906V38.3906C165.039 38.3906 164.212 38.1271 163.546 37.6244L163.245 38.0234ZM166.058 38.8906V39.3906C167.306 39.3906 168.385 39.0598 169.262 38.3693L168.952 37.9766L168.643 37.5838C167.972 38.1121 167.122 38.3906 166.058 38.3906V38.8906ZM168.952 37.9766L169.262 38.3689C170.123 37.689 170.759 36.7823 171.178 35.6681L170.71 35.4922L170.242 35.3162C169.88 36.2802 169.344 37.0297 168.642 37.5842L168.952 37.9766ZM170.71 35.4922L171.177 35.67C171.6 34.5588 171.808 33.3334 171.808 32H171.308H170.808C170.808 33.2291 170.617 34.3318 170.243 35.3143L170.71 35.4922ZM171.308 32H171.808C171.808 30.6829 171.604 29.4801 171.188 28.3986L170.722 28.5781L170.255 28.7576C170.62 29.7074 170.808 30.7859 170.808 32H171.308ZM170.722 28.5781L171.19 28.403C170.778 27.3014 170.143 26.4115 169.278 25.7543L168.976 26.1523L168.673 26.5504C169.371 27.0807 169.9 27.808 170.253 28.7533L170.722 28.5781ZM168.976 26.1523L169.283 25.7577C168.405 25.0752 167.318 24.75 166.058 24.75V25.25V25.75C167.141 25.75 167.999 26.0264 168.669 26.547L168.976 26.1523ZM166.058 25.25V24.75C164.845 24.75 163.79 25.059 162.923 25.7045L163.222 26.1055L163.52 26.5064C164.185 26.0113 165.02 25.75 166.058 25.75V25.25ZM163.222 26.1055L162.926 25.7025C162.072 26.3295 161.44 27.2016 161.021 28.2932L161.487 28.4727L161.954 28.6521C162.315 27.7125 162.84 27.0064 163.518 26.5084L163.222 26.1055ZM161.487 28.4727L161.021 28.292C160.603 29.3695 160.401 30.6089 160.401 32H160.901H161.401C161.401 30.7036 161.59 29.5914 161.954 28.6534L161.487 28.4727Z" fill="white"/>
<path d="M23.8562 0.797258C23.4882 1.26825 23.4609 1.45889 23.7063 1.80653C24.1697 2.40087 24.1289 2.55787 23.3383 3.33165C22.7658 3.89235 22.6976 4.0942 22.943 4.46427C23.3383 5.09226 23.5836 5.0474 23.3791 4.38577C23.2701 4.00449 23.3519 3.80264 23.6654 3.71292C24.2379 3.5335 24.3742 3.65685 24.3742 4.35213C24.3742 4.9689 24.7014 5.11469 24.9331 4.61005C25.0149 4.44184 24.9467 4.19513 24.7695 4.04935C24.6059 3.91478 24.5242 3.79142 24.5923 3.78021C25.4102 3.65685 25.9963 3.6905 26.1326 3.86992C26.2417 4.01571 26.1462 4.02692 25.9145 3.90356C25.5874 3.74657 25.5874 3.769 25.9009 4.0942C26.2417 4.43063 26.2144 4.47548 25.6692 4.47548C25.2466 4.47548 25.1103 4.57641 25.233 4.81191C25.3284 4.99133 25.4783 5.31654 25.5737 5.5184C25.6964 5.77632 25.6555 5.8436 25.4374 5.73146C25.2739 5.64175 25.1239 5.67539 25.1239 5.80996C25.1239 5.93332 25.3965 6.05667 25.7373 6.06789C26.1326 6.0791 26.2144 6.12396 25.9554 6.21367C25.7373 6.28095 25.3556 6.53888 25.1239 6.78559C24.565 7.33508 23.7608 6.80802 23.7608 5.88846C23.7608 5.46233 23.6518 5.3614 23.3246 5.46233C23.0929 5.54082 22.8475 5.59689 22.793 5.59689C22.7385 5.59689 22.7658 5.75389 22.8475 5.94453C22.943 6.13517 22.9021 6.25853 22.7658 6.2361C22.6431 6.20246 22.2478 6.30338 21.907 6.46038C21.4435 6.67345 21.1709 6.68466 20.9119 6.50524C20.6393 6.3146 20.4349 6.34824 20.1077 6.61738C19.7124 6.94259 19.6715 6.94259 19.6715 6.56131C19.6715 6.33703 19.4262 6.02303 19.1263 5.87725C18.2403 5.41747 18.4856 5.21561 20.1077 5.08105C22.0433 4.91283 22.0433 4.92405 21.1437 3.80264C20.5439 3.06251 20.4485 2.78215 20.6802 2.47937C21.021 2.0196 20.6666 1.33554 20.0804 1.33554C19.4262 1.33554 19.1399 2.04202 19.5761 2.59151C20.5439 3.81385 18.5129 5.50718 17.2452 4.52034C17.0407 4.35213 16.7272 4.27363 16.5636 4.3297C16.3728 4.38577 16.2229 4.18392 16.182 3.84749C16.1275 3.26436 15.7322 2.91672 15.1051 2.90551C14.5735 2.90551 14.6826 3.16343 15.8139 4.59884C16.3864 5.32776 17.2316 6.48281 17.6814 7.16687L18.4993 8.40042L20.3803 8.29949C23.1474 8.15371 26.6506 8.18735 28.7089 8.37799L30.5354 8.5462L31.2715 7.45844C31.6804 6.86409 32.5528 5.72025 33.2071 4.91283C34.5566 3.24193 34.6656 2.83822 33.7796 2.95037C33.3434 2.99522 33.1389 3.19708 33.0844 3.612C33.0299 4.02692 32.7982 4.2512 32.3211 4.35213C31.953 4.43063 31.7077 4.57641 31.7895 4.68855C31.8849 4.80069 31.7349 4.92405 31.4623 4.9689C31.1216 5.02498 30.9852 5.26047 30.9852 5.79875C30.9852 6.22488 30.8353 6.60616 30.6445 6.66223C30.4264 6.7183 30.3582 6.62859 30.4809 6.38188C30.6717 5.97817 29.1042 6.0791 28.0137 6.55009C27.6184 6.7183 27.4003 6.68466 27.1958 6.44917C27.0323 6.26974 26.6506 6.0006 26.3507 5.8436C26.0099 5.66418 25.969 5.60811 26.2553 5.67539C27.2095 5.91089 27.0731 4.67734 26.0236 3.39893C25.2739 2.5018 25.1103 2.15416 25.3556 1.95231C25.8191 1.57103 25.7373 1.01033 25.1648 0.58419C24.5105 0.0907695 24.4015 0.113198 23.8562 0.797258ZM18.99 6.46038C19.0172 6.74073 18.9354 7.00987 18.8264 7.06594C18.5265 7.22294 17.9676 6.3146 18.1857 6.03424C18.4584 5.65296 18.9491 5.91089 18.99 6.46038Z" fill="white"/>
<path d="M28.6543 1.69438C28.368 1.97473 28.3544 2.13173 28.627 2.49058C28.9269 2.87186 28.8724 3.05128 28.2726 3.69049C27.3185 4.72219 27.3866 4.84554 28.8724 4.99132C30.4808 5.13711 30.4945 5.12589 29.8811 4.0157C29.4722 3.25314 29.4449 3.01764 29.7175 2.64758C30.3991 1.75045 29.4449 0.898177 28.6543 1.69438Z" fill="white"/>
<path d="M21.7161 9.18542C16.8226 9.6452 11.3838 11.7983 7.60806 14.7588C5.86329 16.1157 3.15072 19.1099 3.00078 19.8388C2.94625 20.0855 2.76905 20.3883 2.59185 20.5117C2.03298 20.9154 0.806188 23.831 0.410889 25.6589C-3.47394 43.9155 21.0073 57.0248 39.2865 46.4835C44.5481 43.4445 47.4924 39.9233 49.5234 34.1929C50.0822 32.6229 50.1777 26.657 49.6597 25.3337C49.4961 24.8964 49.169 23.9993 48.9509 23.3264C48.2557 21.1957 46.2383 18.2128 44.2073 16.2839C43.1577 15.2859 40.4724 13.1889 39.8863 12.9085C39.6 12.7739 38.5232 12.2581 37.4872 11.7647C32.9481 9.58913 27.2776 8.65836 21.7161 9.18542ZM30.699 10.632C34.6928 11.5404 39.1229 13.5477 41.3175 15.4429C41.7537 15.813 42.2308 16.0597 42.3807 15.9812C42.5307 15.9027 42.5852 15.9475 42.4898 16.0597C42.2717 16.3512 44.3436 18.4146 44.6298 18.2016C44.7389 18.1118 44.7662 18.1567 44.6707 18.2913C44.5753 18.4258 44.807 18.908 45.1887 19.3678C45.5704 19.8164 46.1565 20.6911 46.4973 21.3079C46.8517 21.9134 47.2197 22.3396 47.3424 22.2499C47.4651 22.1601 47.4787 22.205 47.3697 22.362C47.2606 22.519 47.506 23.5283 47.9149 24.6048C49.5643 28.9783 48.6919 34.9891 45.8021 39.2392C36.4376 52.9541 11.8746 52.3037 3.62781 38.1178C-0.188874 31.5351 0.942499 23.304 6.46305 17.5175C7.11734 16.8334 7.58079 16.1942 7.49901 16.0933C7.43085 15.9924 7.48538 15.9251 7.62169 15.97C8.00335 16.0485 10.1434 14.5345 9.96622 14.3103C9.88443 14.1981 9.92533 14.1308 10.0616 14.1757C10.2661 14.2206 13.8511 12.4487 14.2191 12.1123C14.3009 12.045 14.4781 11.9665 14.628 11.9441C14.778 11.9217 16.0048 11.574 17.3406 11.1927C21.7025 9.92555 26.6642 9.7237 30.699 10.632Z" fill="white"/>
<path d="M20.4075 11.3273C8.16691 13.5141 0.356351 23.203 2.78267 33.1724C6.12226 46.8872 25.9826 52.898 39.1093 44.1846C54.4169 34.0359 48.651 14.9607 29.1586 11.2264C27.4957 10.9012 22.4249 10.9572 20.4075 11.3273ZM30.8625 12.202C33.098 12.7066 36.5466 14.1645 38.305 15.3307C39.8999 16.4073 40.4451 16.6316 39.8045 15.9699C39.4773 15.6111 39.4773 15.6111 39.9135 15.8802C40.1725 16.0484 40.3224 16.2615 40.2543 16.3512C40.1861 16.4522 40.5133 16.8671 40.9767 17.282C41.4402 17.6969 42.3398 18.6277 42.9668 19.3342C43.6075 20.0407 44.2209 20.5453 44.3436 20.4556C44.4663 20.3659 44.4799 20.4107 44.3708 20.5565C44.2754 20.7135 44.4254 21.2181 44.7116 21.6779C48.1875 27.3074 47.5196 34.8209 43.0759 39.8672C30.4263 54.2325 3.38243 47.4143 3.24612 29.8194C3.16434 20.6238 10.5251 13.5028 21.8524 11.7871C23.2155 11.5852 29.3904 11.8656 30.8625 12.202Z" fill="white"/>
<path d="M21.9888 18.0109C19.3307 18.7286 17.1361 20.1865 17.6541 20.8817C17.7632 21.0275 17.7223 21.0836 17.5587 20.9939C17.1634 20.792 16.9589 21.6106 16.9453 23.4498C16.9453 25.1767 17.3679 26.5448 17.8313 26.3094C17.9949 26.2309 18.0358 26.2645 17.9404 26.3991C17.586 26.8701 19.5079 28.4849 21.8116 29.6512C22.6158 30.0549 24.0471 30.8062 25.0012 31.3333C25.9554 31.8603 26.8005 32.2865 26.8823 32.2865C27.0731 32.2865 28.9951 34.0134 29.3222 34.4844C31.2578 37.2431 28.7634 40.5737 24.7286 40.5849C21.021 40.5849 18.5947 38.4542 18.0903 34.7311C17.9267 33.4976 17.8177 33.2957 17.3542 33.2957C16.8363 33.2957 16.809 33.4527 16.7954 37.288C16.7817 40.697 16.8363 41.269 17.1907 41.2129C17.4088 41.1793 17.695 40.8204 17.8177 40.4167C18.1176 39.4859 18.322 39.4971 20.871 40.5849C25.0149 42.3567 30.2628 41.3587 32.3756 38.3982C33.7251 36.503 33.3979 31.8379 31.9121 31.8379C31.7758 31.8379 31.6668 31.6921 31.6668 31.5239C31.6668 31.1202 29.4994 29.5614 29.1723 29.7297C29.036 29.7969 28.9542 29.7184 29.0087 29.5502C29.0496 29.3932 28.8588 29.2699 28.5998 29.2923C28.3408 29.3035 28.1909 29.2362 28.259 29.1465C28.3953 28.9671 27.6047 28.597 27.2367 28.6643C27.1277 28.6867 27.0322 28.6082 27.0322 28.4961C27.0322 28.2494 25.3011 27.3298 24.715 27.2625C24.4969 27.2401 24.2243 27.128 24.1152 27.0271C23.9925 26.9149 24.0471 26.9037 24.2379 26.9934C24.4287 27.0831 24.5787 27.1056 24.5787 27.0495C24.5787 26.9934 24.0607 26.6906 23.42 26.3878C22.7794 26.0851 22.0297 25.6141 21.7434 25.3674C21.4708 25.1094 21.1028 24.9637 20.9528 25.0422C20.8029 25.1207 20.762 25.0646 20.871 24.93C20.9664 24.7842 20.8438 24.403 20.5711 24.0665C18.8945 21.9583 20.8574 18.908 24.0471 18.6501C27.4957 18.381 30.072 20.478 30.6308 23.988C30.6853 24.3693 30.9034 24.5712 31.326 24.616C32.0076 24.6945 32.0076 24.6721 32.0757 20.1192C32.1166 18.0333 31.4896 17.3269 30.8489 18.7174C30.5081 19.4463 30.181 19.4239 28.1363 18.5604C26.1871 17.7306 23.8017 17.5175 21.9888 18.0109ZM19.3171 24.1562C18.9491 24.56 18.7582 24.5039 18.4038 23.8871C18.0358 23.2143 18.4583 23.0012 19.1399 23.5283C19.4398 23.7637 19.4943 23.9656 19.3171 24.1562ZM20.244 25.6029C21.1164 25.8496 21.2527 26.2533 20.6257 26.6794C20.3394 26.8701 20.2167 26.8813 20.2167 26.7018C20.2167 26.5673 20.3394 26.4551 20.4757 26.4551C20.6257 26.4551 20.6802 26.2981 20.5848 26.1187C20.503 25.9281 20.3258 25.7823 20.1895 25.7823C20.0668 25.7823 20.0259 25.9169 20.1077 26.0851C20.1758 26.2533 20.0259 26.5224 19.7533 26.6906C19.4807 26.8588 19.358 26.9149 19.467 26.8028C19.5761 26.6906 19.5079 26.4439 19.3035 26.2533C18.7446 25.7262 18.5129 24.7169 18.9218 24.6048C19.1126 24.5487 19.3035 24.7057 19.358 24.9412C19.3989 25.1767 19.7942 25.4683 20.244 25.6029ZM22.8748 27.6775C22.8339 27.6887 22.5749 27.8569 22.275 28.0363C21.9888 28.2157 21.8252 28.2494 21.9342 28.1036C22.0433 27.9578 21.9342 27.7896 21.7025 27.7111C21.4572 27.6438 21.3481 27.4868 21.4299 27.3635C21.5389 27.2289 21.8525 27.2401 22.275 27.3971C22.6431 27.5317 22.9157 27.6663 22.8748 27.6775Z" fill="white"/>
</svg>
